<?xml version="1.0" encoding="iso-8859-1"?>
<!-- Generator: Adobe Illustrator 19.0.0, SVG Export Plug-In . SVG Version: 6.00 Build 0)  -->
<svg version="1.1" id="Capa_1" xmlns="http://www.w3.org/2000/svg" xmlns:xlink="http://www.w3.org/1999/xlink" x="0px" y="0px"
	 viewBox="0 0 511.925 511.925" style="enable-background:new 0 0 511.925 511.925;" xml:space="preserve">
<path style="fill:#FFC107;" d="M469.333,127.962c-23.564,0-42.667,19.103-42.667,42.667c0.009,4.473,0.729,8.916,2.133,13.163
	l-34.603,21.995c-22.783,14.516-52.821,9.705-69.931-11.2l-33.92-41.493c5.398-7.267,8.316-16.078,8.32-25.131
	c0-23.564-19.103-42.667-42.667-42.667s-42.667,19.103-42.667,42.667c0.004,9.053,2.922,17.864,8.32,25.131l-33.92,41.493
	c-17.107,20.893-47.131,25.703-69.909,11.2L83.2,183.792c1.405-4.247,2.125-8.69,2.133-13.163
	c0.004-23.564-19.095-42.67-42.66-42.674C19.11,127.951,0.004,147.051,0,170.615c-0.004,22.12,16.898,40.575,38.933,42.51
	l25.216,151.253c0.855,5.143,5.303,8.915,10.517,8.917h362.667c5.214-0.002,9.662-3.774,10.517-8.917l25.216-151.253
	c23.47-2.105,40.79-22.838,38.685-46.308C509.781,144.848,491.39,128.003,469.333,127.962z"/>
<ellipse style="fill:#FFA000;" cx="256" cy="362.629" rx="181.333" ry="53.333"/>
<path style="fill:#FFD54F;" d="M256,426.629c-95.424,0-192-21.973-192-64s96.576-64,192-64s192,21.973,192,64
	S351.424,426.629,256,426.629z M256,319.962c-112.043,0-170.667,27.733-170.667,42.667S143.957,405.296,256,405.296
	s170.667-27.733,170.667-42.667S368.043,319.962,256,319.962z"/>
<g>
</g>
<g>
</g>
<g>
</g>
<g>
</g>
<g>
</g>
<g>
</g>
<g>
</g>
<g>
</g>
<g>
</g>
<g>
</g>
<g>
</g>
<g>
</g>
<g>
</g>
<g>
</g>
<g>
</g>
</svg>
