<?xml version="1.0" encoding="iso-8859-1"?>
<!-- Generator: Adobe Illustrator 19.0.0, SVG Export Plug-In . SVG Version: 6.00 Build 0)  -->
<svg version="1.1" id="Capa_1" xmlns="http://www.w3.org/2000/svg" xmlns:xlink="http://www.w3.org/1999/xlink" x="0px" y="0px"
	 viewBox="0 0 512 512" style="enable-background:new 0 0 512 512;" xml:space="preserve">
<g>
	<g>
		<path d="M461.865,199.729c-5.745-3.555-13.099-3.19-18.48,0.929l-91.307,69.908l-83.051-110.259
			c-3.033-4.017-7.745-6.414-12.778-6.49c-4.93-0.076-9.816,2.174-12.969,6.104l-88.66,110.575l-85.643-69.549
			c-5.316-4.321-12.767-4.859-18.648-1.343c-5.875,3.517-8.93,10.332-7.647,17.061l28.263,147.839
			c1.473,7.691,8.196,13.246,16.018,13.246h338.072c7.827,0,14.55-5.555,16.012-13.246l28.263-147.839
			C470.583,210.023,467.621,203.284,461.865,199.729z M411.557,345.138H100.449l-17.344-90.703l63.696,51.727
			c3.37,2.734,7.696,3.99,12.012,3.555c4.316-0.462,8.272-2.625,10.99-6.011l85.795-107.015l80.328,106.623
			c2.614,3.473,6.506,5.761,10.816,6.348c4.326,0.598,8.664-0.571,12.121-3.212l70.397-53.901L411.557,345.138z"/>
	</g>
</g>
<g>
	<g>
		<path d="M408.73,361.444v41.851H103.27v-41.851H70.658v58.157c0,9.006,7.299,16.306,16.306,16.306h338.072
			c9.006,0,16.306-7.299,16.306-16.306v-58.157H408.73z"/>
	</g>
</g>
<g>
	<g>
		<path d="M256,76.093c-29.97,0-54.352,24.383-54.352,54.352c0,29.97,24.383,54.352,54.352,54.352
			c29.97,0,54.352-24.383,54.352-54.352C310.352,100.476,285.97,76.093,256,76.093z M256,152.187
			c-11.99,0-21.741-9.751-21.741-21.741c0-11.99,9.751-21.741,21.741-21.741s21.741,9.751,21.741,21.741
			C277.741,142.436,267.99,152.187,256,152.187z"/>
	</g>
</g>
<g>
	<g>
		<path d="M457.648,119.032c-29.97,0-54.352,24.382-54.352,54.352c0,29.97,24.383,54.352,54.352,54.352
			c29.97,0,54.352-24.383,54.352-54.352C512,143.414,487.617,119.032,457.648,119.032z M457.648,195.125
			c-11.99,0-21.741-9.751-21.741-21.741c0-11.99,9.751-21.741,21.741-21.741s21.741,9.751,21.741,21.741
			C479.389,185.374,469.638,195.125,457.648,195.125z"/>
	</g>
</g>
<g>
	<g>
		<path d="M54.352,119.032C24.383,119.032,0,143.414,0,173.384c0,29.97,24.383,54.352,54.352,54.352
			c29.97,0,54.352-24.383,54.352-54.352C108.705,143.414,84.322,119.032,54.352,119.032z M54.352,195.125
			c-11.99,0-21.741-9.751-21.741-21.741c0-11.99,9.751-21.741,21.741-21.741c11.99,0,21.741,9.751,21.741,21.741
			C76.093,185.374,66.343,195.125,54.352,195.125z"/>
	</g>
</g>
<g>
</g>
<g>
</g>
<g>
</g>
<g>
</g>
<g>
</g>
<g>
</g>
<g>
</g>
<g>
</g>
<g>
</g>
<g>
</g>
<g>
</g>
<g>
</g>
<g>
</g>
<g>
</g>
<g>
</g>
</svg>
