<?xml version="1.0" standalone="no"?>
<!DOCTYPE svg PUBLIC "-//W3C//DTD SVG 20010904//EN"
 "http://www.w3.org/TR/2001/REC-SVG-20010904/DTD/svg10.dtd">
<svg version="1.0" xmlns="http://www.w3.org/2000/svg"
 width="512.000000pt" height="512.000000pt" viewBox="0 0 512.000000 512.000000"
 preserveAspectRatio="xMidYMid meet">
<metadata>
Created by potrace 1.11, written by Peter Selinger 2001-2013
</metadata>
<g transform="translate(0.000000,512.000000) scale(0.100000,-0.100000)"
fill="#000000" stroke="none">
<path d="M2084 4641 c-114 -51 -139 -203 -49 -293 l35 -34 -313 -2 c-321 -1
-384 -7 -512 -49 -256 -82 -479 -307 -567 -568 -36 -110 -25 -185 36 -237 59
-51 -42 -48 1846 -48 1935 0 1797 -5 1859 62 54 58 59 130 17 241 -117 311
-374 525 -706 587 -44 9 -167 12 -374 11 l-310 -1 37 36 c44 45 61 91 55 155
-6 60 -45 114 -102 140 -38 17 -72 18 -476 18 -400 0 -439 -2 -476 -18z"/>
<path d="M815 3054 c-6 -1 -22 -5 -37 -8 -34 -8 -84 -50 -105 -90 -13 -24 -17
-62 -19 -164 -1 -73 -4 -135 -6 -137 -2 -2 -123 -5 -269 -7 l-265 -3 -41 -33
c-86 -68 -94 -203 -16 -274 48 -43 81 -48 343 -48 231 0 250 -1 251 -17 0 -10
2 -263 3 -563 3 -552 5 -591 43 -705 39 -121 144 -275 240 -352 26 -21 53 -43
60 -49 22 -21 197 -103 232 -109 19 -3 38 -8 43 -11 4 -3 27 -8 50 -12 56 -9
2409 -9 2468 0 233 35 458 193 575 403 32 58 75 173 91 245 4 19 8 287 10 595
1 308 3 563 3 568 1 4 114 7 251 7 262 0 295 5 343 48 65 58 72 175 16 247
-45 56 -62 60 -347 65 l-264 5 -2 135 c-2 144 -10 173 -58 216 -57 52 54 49
-1828 50 -966 0 -1760 -1 -1765 -2z"/>
</g>
</svg>
