<svg xmlns="http://www.w3.org/2000/svg" xmlns:xlink="http://www.w3.org/1999/xlink" version="1.1" id="Layer_1" x="0px" y="0px" viewBox="0 0 455 455" xml:space="preserve" width="48px" height="48px" class=""><g xmlns="http://www.w3.org/2000/svg">
	<path xmlns="http://www.w3.org/2000/svg" d="M0,0v455h455V0H0z M294.627,281.995c-24.25,26.418-50.615,46.862-58.118,52.499l-9.01,6.768l-9.01-6.769   c-7.503-5.637-33.867-26.081-58.117-52.499c-32.296-35.185-48.672-67.389-48.672-95.717c0-37.923,30.853-68.776,68.776-68.776   c17.711,0,34.456,6.842,47.023,18.63c12.567-11.789,29.313-18.63,47.023-18.63c37.924,0,68.776,30.853,68.776,68.776   C343.3,214.605,326.924,246.81,294.627,281.995z" data-original="#000000" class="" fill="#000044"/>
</g></svg>