<?xml version="1.0" encoding="iso-8859-1"?>
<!-- Generator: Adobe Illustrator 19.0.0, SVG Export Plug-In . SVG Version: 6.00 Build 0)  -->
<svg xmlns="http://www.w3.org/2000/svg" xmlns:xlink="http://www.w3.org/1999/xlink" version="1.1" id="Capa_1" x="0px" y="0px" viewBox="0 0 470 470" style="enable-background:new 0 0 470 470;" xml:space="preserve" width="512" height="512">
<g>
	<path style="fill:#66C6FE;" d="M386.813,220.479l-38.159-87.143c-21.805-24.371-51.327-41.683-84.732-48.093   c0,0-0.048,299.036,0,299.51c70.392-13.507,123.578-75.417,123.578-149.75C387.5,230.103,387.268,225.252,386.813,220.479z"/>
	<path style="fill:#99D9FF;" d="M327.013,133.336c-16.48-22.754-38.411-39.35-63.266-46.68l-57.669-1.404   c-21.321,4.086-41.064,12.616-58.221,24.594l-63.44,100.95c-1.268,7.882-1.917,15.967-1.917,24.206   c0,7.504,0.542,14.892,1.598,22.105l39.514,82.04c21.563,23.064,50.204,39.418,82.466,45.614c0-0.01,57.669-1.414,57.669-1.414   c54.319-16.005,94.705-76.357,94.705-148.346L327.013,133.336z"/>
	<path style="fill:#84B044;" d="M348.663,133.326c-0.01,0.01-21.65,0.01-21.65,0.01l31.439,101.667h13.836   c8.027,0,14.524-6.507,14.524-14.524C383.666,187.142,369.781,156.922,348.663,133.326z"/>
	<path style="fill:#A2C352;" d="M358.452,235.002h-26.627v-25.159H235v-30h29.048c0-8.017,6.507-14.524,14.524-14.524h9.683v-31.984   h38.759C346.562,160.321,358.452,195.943,358.452,235.002z"/>
	<path style="fill:#A2C352;" d="M288.254,239.844v91.984h-33.889c-10.651,0-19.365-8.714-19.365-19.365v-33.889h-9.683   c-10.699,0-19.365-8.666-19.365-19.365c0-10.699,8.666-19.365,19.365-19.365H288.254z"/>
	<path style="fill:#CCECFF;" d="M263.747,383.349l-27.15,4.144c9.334-0.097,18.465-1.026,27.324-2.73   C263.873,384.278,263.825,383.813,263.747,383.349z"/>
	<path style="fill:#CCECFF;" d="M236.598,82.512l27.15,4.144c0.078-0.465,0.126-0.929,0.174-1.404   C255.062,83.539,245.932,82.609,236.598,82.512z"/>
	<path style="fill:#FFFFFF;" d="M263.747,86.656C261.743,100.725,249.63,111.55,235,111.55c-15.114,0-27.537-11.551-28.922-26.298   c9.363-1.811,19.036-2.75,28.922-2.75c0.533,0,1.065,0,1.598,0.01C245.932,82.657,255.023,84.09,263.747,86.656z"/>
	<path style="fill:#FFFFFF;" d="M235,358.455c14.63,0,26.743,10.825,28.747,24.894c-8.724,2.566-17.816,3.999-27.15,4.144   c-0.533,0.01-1.065,0.01-1.598,0.01c-9.886,0-19.559-0.939-28.922-2.74C207.463,370.006,219.886,358.455,235,358.455z"/>
	<path style="fill:#A2C352;" d="M99.444,249.526c-6.236,0-11.767,2.961-15.309,7.539c-0.013,0.016-0.026,0.026-0.038,0.042   c4.57,31.497,18.765,59.867,39.514,82.04c0.001-0.001,21.619-26.259,21.619-26.259c6.77-8.222,12.309-23.664,12.309-34.315v-29.048   H99.444z"/>
	<path style="fill:#A2C352;" d="M147.857,109.846v100.95h-63.44C91.059,169.084,114.627,133.016,147.857,109.846z"/>
	<path style="fill:#99D9FF;" d="M7.5,137.497v20c0,11.102,6.036,20.789,15,25.977v189.023c0,8.284,6.716,15,15,15s15-6.716,15-15   V183.474c8.964-5.188,15-14.874,15-25.977v-20H7.5z"/>
	<polygon style="fill:#66C6FE;" points="462.49,244.997 462.49,274.997 447.49,302.508 432.49,274.997 432.49,230.008  "/>
	<path style="fill:#99D9FF;" d="M462.49,274.997v97.51c0,8.28-6.72,15-15,15s-15-6.72-15-15v-97.51H462.49z"/>
	<path style="fill:#99D9FF;" d="M440,82.497c-12.427,0-22.5,10.074-22.5,22.5v117.5c0,12.427,10.073,22.5,22.5,22.5h22.5   c0-64.949,0-140,0-140C462.5,92.571,452.427,82.497,440,82.497z"/>
	<path d="M235,75.002c-88.224,0-160,71.776-160,160s71.776,160,160,160c88.225,0,160-71.776,160-160S323.225,75.002,235,75.002z    M331.825,202.344H242.5v-15h21.548c4.143,0,7.5-3.358,7.5-7.5c0-3.873,3.15-7.024,7.023-7.024h9.683c4.143,0,7.5-3.358,7.5-7.5   v-24.484h49.414c18.803,21.967,31.167,49.598,34.135,79.946c-0.161,3.732-3.238,6.72-7.008,6.72h-32.969v-17.659   C339.325,205.702,335.968,202.344,331.825,202.344z M254.658,91.34c-3.369,7.563-10.902,12.71-19.658,12.71   c-8.756,0-16.288-5.147-19.657-12.71c6.43-0.875,12.991-1.338,19.657-1.338C241.667,90.002,248.227,90.465,254.658,91.34z    M140.357,125.238v78.058H93.501C100.415,172.423,117.196,145.235,140.357,125.238z M123.454,327.54   c-15.9-19.133-26.976-42.406-31.357-67.938c2.073-1.655,4.635-2.575,7.347-2.575h50.595v21.547c0,8.883-4.953,22.691-10.599,29.548   L123.454,327.54z M215.343,378.665c3.369-7.563,10.901-12.71,19.657-12.71c8.756,0,16.289,5.147,19.658,12.71   c-6.431,0.875-12.991,1.338-19.658,1.338C228.333,380.002,221.773,379.54,215.343,378.665z M269.651,375.807   C264.78,361.19,251.09,350.955,235,350.955c-16.09,0-29.78,10.235-34.651,24.852c-25.52-6.282-48.401-19.336-66.624-37.143   l17.296-21.008c7.861-9.547,14.019-26.715,14.019-39.083v-29.047c0-4.142-3.358-7.5-7.5-7.5H99.444   c-3.188,0-6.284,0.555-9.18,1.607c-0.169-2.857-0.264-5.733-0.264-8.631c0-5.65,0.336-11.223,0.968-16.707h49.389v2.183   c0,4.142,3.358,7.5,7.5,7.5s7.5-3.358,7.5-7.5V113.896c13.583-8.963,28.753-15.702,44.992-19.699   C205.22,108.815,218.91,119.05,235,119.05c16.09,0,29.78-10.235,34.651-24.853c22.814,5.616,43.521,16.64,60.675,31.638H273.73   c-4.143,0-7.5,3.358-7.5,7.5s3.357,7.5,7.5,7.5h7.023v16.984h-2.183c-9.512,0-17.635,6.061-20.709,14.524H235   c-4.142,0-7.5,3.358-7.5,7.5v22.5h-11.865c-4.142,0-7.5,3.358-7.5,7.5s3.358,7.5,7.5,7.5h79.643v15h-69.96   c-14.813,0-26.865,12.051-26.865,26.865s12.052,26.865,26.865,26.865h2.183v26.389c0,14.813,12.052,26.865,26.865,26.865h33.889   c4.143,0,7.5-3.358,7.5-7.5v-30.992c0-4.142-3.357-7.5-7.5-7.5s-7.5,3.358-7.5,7.5v23.492h-26.389   c-6.543,0-11.865-5.323-11.865-11.865v-33.889c0-4.142-3.357-7.5-7.5-7.5h-9.683c-6.542,0-11.865-5.323-11.865-11.865   s5.323-11.865,11.865-11.865h55.437v23.492c0,4.142,3.357,7.5,7.5,7.5s7.5-3.358,7.5-7.5v-23.492h7.023c4.143,0,7.5-3.358,7.5-7.5   v-22.5h14.048v41.865c0,4.142,3.357,7.5,7.5,7.5s7.5-3.358,7.5-7.5v-16.707h32.969c2.657,0,5.206-0.474,7.566-1.34   C377.117,306.449,331.005,360.705,269.651,375.807z"/>
	<path d="M317.302,293.336c-4.143,0-7.5,3.358-7.5,7.5v10c0,4.142,3.357,7.5,7.5,7.5s7.5-3.358,7.5-7.5v-10   C324.802,296.694,321.444,293.336,317.302,293.336z"/>
	<path d="M215.635,160.36c4.142,0,7.5-3.358,7.5-7.5v-10c0-4.142-3.358-7.5-7.5-7.5s-7.5,3.358-7.5,7.5v10   C208.135,157.002,211.493,160.36,215.635,160.36z"/>
	<path d="M75,82.498c0-4.142-3.358-7.5-7.5-7.5s-7.5,3.358-7.5,7.5v47.5H45v-47.5c0-4.142-3.358-7.5-7.5-7.5s-7.5,3.358-7.5,7.5   v47.5H15v-47.5c0-4.142-3.358-7.5-7.5-7.5S0,78.355,0,82.498v75c0,11.831,5.652,22.957,15,29.99v185.01   c0,12.407,10.093,22.5,22.5,22.5s22.5-10.093,22.5-22.5v-185.01c9.348-7.033,15-18.159,15-29.99V82.498z M48.743,176.983   c-2.316,1.341-3.743,3.814-3.743,6.491v189.023c0,4.136-3.364,7.5-7.5,7.5s-7.5-3.364-7.5-7.5V183.474   c0-2.677-1.427-5.15-3.743-6.491C19.313,172.964,15,165.498,15,157.498v-12.5h45v12.5C60,165.498,55.687,172.964,48.743,176.983z"/>
	<path d="M440,74.998c-16.542,0-30,13.458-30,30v117.5c0,16.542,13.458,30,30,30h15v120c0,4.136-3.364,7.5-7.5,7.5   s-7.5-3.364-7.5-7.501l-0.01-97.5c0-4.142-3.358-7.5-7.501-7.499c-4.142,0-7.499,3.358-7.499,7.501l0.01,97.499   c0,12.407,10.094,22.5,22.5,22.5s22.5-10.093,22.5-22.5v-267.5C470,88.456,456.542,74.998,440,74.998z M455,237.498h-15   c-8.271,0-15-6.729-15-15v-117.5c0-8.271,6.729-15,15-15s15,6.729,15,15V237.498z"/>
</g>















</svg>
