<?xml version="1.0" encoding="iso-8859-1"?>
<!-- Generator: Adobe Illustrator 19.1.0, SVG Export Plug-In . SVG Version: 6.00 Build 0)  -->
<svg version="1.1" id="Capa_1" xmlns="http://www.w3.org/2000/svg" xmlns:xlink="http://www.w3.org/1999/xlink" x="0px" y="0px"
	 viewBox="0 0 64 64" style="enable-background:new 0 0 64 64;" xml:space="preserve">
<g>
	<g>
		<path d="M48,3.922c-7.357,0-13.639,4.146-16,9.929c-2.361-5.783-8.643-9.929-16-9.929c-10.015,0-16,8.644-16,17
			c0,8.589,5.326,17.755,15.83,27.242c7.738,6.989,15.59,11.577,15.668,11.623L32,60.078l0.502-0.291
			c0.079-0.046,7.93-4.634,15.668-11.623C58.674,38.677,64,29.511,64,20.922C64,12.566,58.015,3.922,48,3.922z M32,57.755
			C28.031,55.332,2,38.75,2,20.922c0-7.373,5.237-15,14-15c7.214,0,15,4.971,15,13h2c0-8.029,7.786-13,15-13c8.763,0,14,7.627,14,15
			C62,38.74,35.968,55.331,32,57.755z"/>
	</g>
</g>
<g>
</g>
<g>
</g>
<g>
</g>
<g>
</g>
<g>
</g>
<g>
</g>
<g>
</g>
<g>
</g>
<g>
</g>
<g>
</g>
<g>
</g>
<g>
</g>
<g>
</g>
<g>
</g>
<g>
</g>
</svg>
